<mxfile host="app.diagrams.net" modified="2024-06-05T18:11:40.673Z" agent="Mozilla/5.0 (Windows NT 10.0; Win64; x64; rv:126.0) Gecko/20100101 Firefox/126.0" etag="iEXtg_2fVYQthTh0yS8O" version="24.4.14" type="google">
  <diagram name="Página-1" id="J2HCwpwKN_PN53eveGyv">
    <mxGraphModel grid="1" page="1" gridSize="10" guides="1" tooltips="1" connect="1" arrows="1" fold="1" pageScale="1" pageWidth="827" pageHeight="1169" math="0" shadow="0">
      <root>
        <mxCell id="0" />
        <mxCell id="1" parent="0" />
        <mxCell id="4p8fmYKMg-Ah4OSXP6Rg-4" value="+ realizarConsulta()" style="text;html=1;align=center;verticalAlign=middle;whiteSpace=wrap;rounded=0;" vertex="1" parent="1">
          <mxGeometry x="476" y="345" width="132" height="30" as="geometry" />
        </mxCell>
        <mxCell id="zQzY1kllfL9L5DVMYcvz-21" style="edgeStyle=none;curved=1;rounded=0;orthogonalLoop=1;jettySize=auto;html=1;exitX=0.5;exitY=1;exitDx=0;exitDy=0;entryX=0.5;entryY=0;entryDx=0;entryDy=0;strokeColor=#E07A5F;fontSize=12;fontColor=#393C56;startSize=8;endSize=8;fillColor=#F2CC8F;endArrow=none;endFill=0;" edge="1" parent="1" source="Sp6tKtaWawHbFYD70YBr-21" target="Sp6tKtaWawHbFYD70YBr-38">
          <mxGeometry relative="1" as="geometry" />
        </mxCell>
        <mxCell id="Sp6tKtaWawHbFYD70YBr-21" value="Cliente" style="swimlane;fontStyle=0;childLayout=stackLayout;horizontal=1;startSize=26;fillColor=none;horizontalStack=0;resizeParent=1;resizeParentMax=0;resizeLast=0;collapsible=1;marginBottom=0;whiteSpace=wrap;html=1;" vertex="1" parent="1">
          <mxGeometry x="480" y="281" width="160" height="160" as="geometry" />
        </mxCell>
        <mxCell id="Sp6tKtaWawHbFYD70YBr-26" value="Dueño" style="swimlane;fontStyle=0;childLayout=stackLayout;horizontal=1;startSize=26;fillColor=none;horizontalStack=0;resizeParent=1;resizeParentMax=0;resizeLast=0;collapsible=1;marginBottom=0;whiteSpace=wrap;html=1;verticalAlign=top;labelBorderColor=none;" vertex="1" parent="1">
          <mxGeometry x="160" y="281" width="160" height="160" as="geometry" />
        </mxCell>
        <mxCell id="zQzY1kllfL9L5DVMYcvz-16" style="edgeStyle=none;curved=1;rounded=0;orthogonalLoop=1;jettySize=auto;html=1;exitX=0.5;exitY=1;exitDx=0;exitDy=0;entryX=0.5;entryY=0;entryDx=0;entryDy=0;fontSize=12;strokeColor=none;" edge="1" parent="1" source="Sp6tKtaWawHbFYD70YBr-26" target="Sp6tKtaWawHbFYD70YBr-34">
          <mxGeometry relative="1" as="geometry" />
        </mxCell>
        <mxCell id="zQzY1kllfL9L5DVMYcvz-20" style="edgeStyle=none;curved=1;rounded=0;orthogonalLoop=1;jettySize=auto;html=1;exitX=0.5;exitY=1;exitDx=0;exitDy=0;entryX=0.5;entryY=0;entryDx=0;entryDy=0;strokeColor=#E07A5F;fontSize=12;fontColor=#393C56;fillColor=#F2CC8F;endArrow=none;endFill=0;" edge="1" parent="1" source="Sp6tKtaWawHbFYD70YBr-26" target="Sp6tKtaWawHbFYD70YBr-34">
          <mxGeometry relative="1" as="geometry" />
        </mxCell>
        <mxCell id="Sp6tKtaWawHbFYD70YBr-34" value="Guarderia" style="swimlane;fontStyle=0;childLayout=stackLayout;horizontal=1;startSize=26;fillColor=none;horizontalStack=0;resizeParent=1;resizeParentMax=0;resizeLast=0;collapsible=1;marginBottom=0;whiteSpace=wrap;html=1;" vertex="1" parent="1">
          <mxGeometry x="160" y="561" width="160" height="160" as="geometry" />
        </mxCell>
        <mxCell id="Sp6tKtaWawHbFYD70YBr-38" value="Mascota" style="swimlane;fontStyle=0;childLayout=stackLayout;horizontal=1;startSize=26;fillColor=none;horizontalStack=0;resizeParent=1;resizeParentMax=0;resizeLast=0;collapsible=1;marginBottom=0;whiteSpace=wrap;html=1;" vertex="1" parent="1">
          <mxGeometry x="480" y="561" width="160" height="160" as="geometry">
            <mxRectangle x="480" y="560" width="90" height="30" as="alternateBounds" />
          </mxGeometry>
        </mxCell>
        <mxCell id="zQzY1kllfL9L5DVMYcvz-23" style="edgeStyle=none;curved=1;rounded=0;orthogonalLoop=1;jettySize=auto;html=1;exitX=1;exitY=0.5;exitDx=0;exitDy=0;entryX=0;entryY=0.5;entryDx=0;entryDy=0;strokeColor=#E07A5F;fontSize=12;fontColor=#393C56;startSize=8;endSize=8;fillColor=#F2CC8F;endArrow=none;endFill=0;" edge="1" parent="1">
          <mxGeometry relative="1" as="geometry">
            <mxPoint x="320" y="640.5" as="sourcePoint" />
            <mxPoint x="480" y="640.5" as="targetPoint" />
          </mxGeometry>
        </mxCell>
        <mxCell id="q2R5aibIjcf4UY63-XrP-1" value="1" style="text;html=1;align=center;verticalAlign=middle;whiteSpace=wrap;rounded=0;" vertex="1" parent="1">
          <mxGeometry x="190" y="441" width="60" height="30" as="geometry" />
        </mxCell>
        <mxCell id="q2R5aibIjcf4UY63-XrP-3" value="1..*" style="text;html=1;align=center;verticalAlign=middle;whiteSpace=wrap;rounded=0;" vertex="1" parent="1">
          <mxGeometry x="190" y="531" width="60" height="30" as="geometry" />
        </mxCell>
        <mxCell id="q2R5aibIjcf4UY63-XrP-6" value="1" style="text;html=1;align=center;verticalAlign=middle;whiteSpace=wrap;rounded=0;" vertex="1" parent="1">
          <mxGeometry x="300" y="611" width="60" height="30" as="geometry" />
        </mxCell>
        <mxCell id="q2R5aibIjcf4UY63-XrP-9" value="0..*" style="text;html=1;align=center;verticalAlign=middle;whiteSpace=wrap;rounded=0;" vertex="1" parent="1">
          <mxGeometry x="430" y="611" width="60" height="30" as="geometry" />
        </mxCell>
        <mxCell id="q2R5aibIjcf4UY63-XrP-10" value="1" style="text;html=1;align=center;verticalAlign=middle;whiteSpace=wrap;rounded=0;" vertex="1" parent="1">
          <mxGeometry x="510" y="441" width="60" height="30" as="geometry" />
        </mxCell>
        <mxCell id="q2R5aibIjcf4UY63-XrP-11" value="1..*" style="text;html=1;align=center;verticalAlign=middle;whiteSpace=wrap;rounded=0;" vertex="1" parent="1">
          <mxGeometry x="510" y="531" width="60" height="30" as="geometry" />
        </mxCell>
        <mxCell id="QFbCKDEZycEQ4zQYCo5S-6" style="edgeStyle=none;curved=1;rounded=0;orthogonalLoop=1;jettySize=auto;html=1;exitX=0.75;exitY=0;exitDx=0;exitDy=0;fontSize=12;startSize=8;endSize=8;" edge="1" parent="1" source="q2R5aibIjcf4UY63-XrP-10" target="q2R5aibIjcf4UY63-XrP-10">
          <mxGeometry relative="1" as="geometry" />
        </mxCell>
        <mxCell id="QFbCKDEZycEQ4zQYCo5S-7" value="Usuario" style="swimlane;fontStyle=1;align=center;verticalAlign=top;childLayout=stackLayout;horizontal=1;startSize=30;horizontalStack=0;resizeParent=1;resizeParentMax=0;resizeLast=0;collapsible=1;marginBottom=0;whiteSpace=wrap;html=1;" vertex="1" parent="1">
          <mxGeometry x="320" y="21" width="160" height="160" as="geometry" />
        </mxCell>
        <mxCell id="QFbCKDEZycEQ4zQYCo5S-8" value="- Nombre: str" style="text;strokeColor=none;fillColor=none;align=left;verticalAlign=top;spacingLeft=4;spacingRight=4;overflow=hidden;rotatable=0;points=[[0,0.5],[1,0.5]];portConstraint=eastwest;whiteSpace=wrap;html=1;" vertex="1" parent="QFbCKDEZycEQ4zQYCo5S-7">
          <mxGeometry y="30" width="160" height="26" as="geometry" />
        </mxCell>
        <mxCell id="QFbCKDEZycEQ4zQYCo5S-10" value="&lt;div&gt;- Apellido: str&lt;/div&gt;&lt;div&gt;&lt;br&gt;&lt;/div&gt;&lt;div&gt;- Email: str&lt;br&gt;&lt;/div&gt;&lt;div&gt;&lt;br&gt;&lt;/div&gt;&lt;div&gt;&lt;br&gt;&lt;/div&gt;" style="text;strokeColor=none;fillColor=none;align=left;verticalAlign=top;spacingLeft=4;spacingRight=4;overflow=hidden;rotatable=0;points=[[0,0.5],[1,0.5]];portConstraint=eastwest;whiteSpace=wrap;html=1;" vertex="1" parent="QFbCKDEZycEQ4zQYCo5S-7">
          <mxGeometry y="56" width="160" height="104" as="geometry" />
        </mxCell>
        <mxCell id="4p8fmYKMg-Ah4OSXP6Rg-1" value="+ listarGuarderias()" style="text;html=1;align=right;verticalAlign=middle;resizable=0;points=[];autosize=1;strokeColor=none;fillColor=none;" vertex="1" parent="1">
          <mxGeometry x="146" y="312" width="130" height="30" as="geometry" />
        </mxCell>
        <mxCell id="4p8fmYKMg-Ah4OSXP6Rg-7" value="+ listarConsultas()" style="text;html=1;align=center;verticalAlign=middle;whiteSpace=wrap;rounded=0;" vertex="1" parent="1">
          <mxGeometry x="164" y="358" width="110" height="30" as="geometry" />
        </mxCell>
        <mxCell id="4p8fmYKMg-Ah4OSXP6Rg-8" value="- nombre : str" style="text;html=1;align=center;verticalAlign=middle;whiteSpace=wrap;rounded=0;" vertex="1" parent="1">
          <mxGeometry x="483" y="593" width="90" height="30" as="geometry" />
        </mxCell>
        <mxCell id="4p8fmYKMg-Ah4OSXP6Rg-9" value="- raza: str" style="text;html=1;align=center;verticalAlign=middle;whiteSpace=wrap;rounded=0;" vertex="1" parent="1">
          <mxGeometry x="488" y="619" width="60" height="30" as="geometry" />
        </mxCell>
        <mxCell id="4p8fmYKMg-Ah4OSXP6Rg-10" value="- nombre: str" style="text;html=1;align=center;verticalAlign=middle;whiteSpace=wrap;rounded=0;" vertex="1" parent="1">
          <mxGeometry x="165" y="591" width="80" height="30" as="geometry" />
        </mxCell>
        <mxCell id="4p8fmYKMg-Ah4OSXP6Rg-11" value="- capacidad: int" style="text;html=1;align=center;verticalAlign=middle;whiteSpace=wrap;rounded=0;" vertex="1" parent="1">
          <mxGeometry x="156" y="608" width="110" height="30" as="geometry" />
        </mxCell>
        <mxCell id="4p8fmYKMg-Ah4OSXP6Rg-12" value="+ reservarEspacio()" style="text;html=1;align=center;verticalAlign=middle;whiteSpace=wrap;rounded=0;" vertex="1" parent="1">
          <mxGeometry x="154" y="661" width="140" height="30" as="geometry" />
        </mxCell>
        <mxCell id="4p8fmYKMg-Ah4OSXP6Rg-13" value="+ cancelarReserva()" style="text;html=1;align=center;verticalAlign=middle;whiteSpace=wrap;rounded=0;" vertex="1" parent="1">
          <mxGeometry x="153" y="681" width="145" height="30" as="geometry" />
        </mxCell>
        <mxCell id="4p8fmYKMg-Ah4OSXP6Rg-14" value="+ registrarGuarderia() " style="text;html=1;align=center;verticalAlign=middle;whiteSpace=wrap;rounded=0;" vertex="1" parent="1">
          <mxGeometry x="152" y="335" width="150" height="30" as="geometry" />
        </mxCell>
        <mxCell id="4p8fmYKMg-Ah4OSXP6Rg-16" value="&lt;br&gt;&lt;div&gt;+ aceptarConsulta()&lt;/div&gt;" style="text;html=1;align=center;verticalAlign=middle;whiteSpace=wrap;rounded=0;" vertex="1" parent="1">
          <mxGeometry x="152" y="376" width="140" height="30" as="geometry" />
        </mxCell>
        <mxCell id="4p8fmYKMg-Ah4OSXP6Rg-5" value="+ verHistorialConsultas()" style="text;html=1;align=center;verticalAlign=middle;whiteSpace=wrap;rounded=0;" vertex="1" parent="1">
          <mxGeometry x="486" y="320" width="140" height="30" as="geometry" />
        </mxCell>
        <mxCell id="vIDvgyZtCF5HdJvZBjwv-12" value="" style="line;strokeWidth=1;fillColor=none;align=left;verticalAlign=middle;spacingTop=-1;spacingLeft=3;spacingRight=3;rotatable=0;labelPosition=right;points=[];portConstraint=eastwest;strokeColor=inherit;" vertex="1" parent="1">
          <mxGeometry x="160" y="642" width="159" height="8" as="geometry" />
        </mxCell>
        <mxCell id="vIDvgyZtCF5HdJvZBjwv-15" value="&lt;br&gt;&lt;div&gt;+ rechazarConsulta()&lt;/div&gt;" style="text;html=1;align=center;verticalAlign=middle;whiteSpace=wrap;rounded=0;" vertex="1" parent="1">
          <mxGeometry x="155" y="398" width="140" height="30" as="geometry" />
        </mxCell>
        <mxCell id="bFYhS3p80BJ1hG1U2RuM-1" value="Extends" style="endArrow=block;endSize=16;endFill=0;html=1;rounded=0;fontSize=12;curved=1;labelBackgroundColor=none;fontColor=none;noLabel=1;" edge="1" parent="1" target="QFbCKDEZycEQ4zQYCo5S-10">
          <mxGeometry width="160" relative="1" as="geometry">
            <mxPoint x="260" y="280" as="sourcePoint" />
            <mxPoint x="353" y="183" as="targetPoint" />
          </mxGeometry>
        </mxCell>
        <mxCell id="bFYhS3p80BJ1hG1U2RuM-2" value="Extends" style="endArrow=block;endSize=16;endFill=0;html=1;rounded=0;fontSize=12;curved=1;labelBackgroundColor=none;fontColor=none;noLabel=1;exitX=0.369;exitY=-0.006;exitDx=0;exitDy=0;exitPerimeter=0;" edge="1" parent="1" source="Sp6tKtaWawHbFYD70YBr-21">
          <mxGeometry width="160" relative="1" as="geometry">
            <mxPoint x="530" y="280" as="sourcePoint" />
            <mxPoint x="450" y="180" as="targetPoint" />
          </mxGeometry>
        </mxCell>
      </root>
    </mxGraphModel>
  </diagram>
</mxfile>
